<?xml version="1.0" encoding="utf-8"?>
<!-- Generator: Adobe Illustrator 21.0.2, SVG Export Plug-In . SVG Version: 6.00 Build 0)  -->
<svg version="1.1" id="Layer_1" xmlns="http://www.w3.org/2000/svg" xmlns:xlink="http://www.w3.org/1999/xlink" x="0px" y="0px"
	 viewBox="0 0 363.7 105.4" style="enable-background:new 0 0 363.7 105.4;" xml:space="preserve">
<style type="text/css">
	.st0{fill:#F4F1F0;}
	.st1{fill:#00A551;}
	.st2{fill:#1C85BF;}
	.st3{fill:#00ADEE;}
	.st4{fill:#8BC53F;}
	.st5{fill:#FFFFFF;}
</style>
<g>
	<title>Layer 1</title>
	<g id="svg_18">
		<g id="Layer_1_1_">
		</g>
		<g id="Layer_2">
			<g id="shadow">
				<g id="svg_1">
					
						<image style="overflow:visible;enable-background:new    ;" width="854" height="854" id="svg_2" xlink:href="5AADD2D8C88B7D8F.png"  transform="matrix(0.1234 0 0 0.1234 0 0)">
					</image>
					<g id="svg_3">
						<polygon id="svg_4" class="st0" points="96.1,50.8 96.1,5.6 50.9,5.6 5.7,50.8 50.9,50.8 50.9,96 						"/>
					</g>
				</g>
			</g>
			<g id="logo">
				<g id="svg_5">
					<g id="svg_6">
						<polygon id="svg_7" class="st1" points="50.9,96 50.9,50.8 96.1,50.8 						"/>
						<polygon id="svg_8" class="st2" points="50.9,5.6 50.9,50.8 5.7,50.8 						"/>
						<polygon id="svg_9" class="st3" points="50.9,50.8 50.9,5.6 96.1,5.6 						"/>
						<polygon id="svg_10" class="st4" points="96.1,5.6 96,50.8 50.9,50.8 						"/>
					</g>
				</g>
			</g>
		</g>
		<g id="Layer_3">
			<g id="svg_11">
				<path id="svg_12" class="st5" d="M122,56c0,5.4,1.2,9.4,3.7,11.8c2.5,2.5,6.3,3.7,11.3,3.7c2.5,0,4.6-0.5,6.3-1.5
					s3.3-2.4,4.6-4.2l7,2.9c-1.8,3-4.3,5.4-7.5,7.1s-6.8,2.6-10.9,2.6s-7.6-0.6-10.5-1.7c-2.9-1.1-5.2-2.7-7-4.8
					c-1.8-2.1-3.1-4.6-3.9-7.5s-1.2-6.2-1.2-9.8v-1c0-1.5,0-3,0.1-4.5c0.1-1.4,0.2-2.9,0.6-4.3c0.3-1.4,0.8-2.8,1.5-4.2
					s1.6-2.8,2.9-4.1c2.1-2.3,4.6-4.1,7.5-5.2c2.9-1.1,5.9-1.7,9-1.7c3.5,0,6.5,0.6,9.2,1.7s4.9,2.7,6.7,4.6c1.8,2,3.2,4.3,4.1,7
					c0.9,2.7,1.4,5.7,1.4,9v4.2H122C122,56.1,122,56,122,56z M122,49.5h27v-0.8c0-1.5-0.3-3.1-0.9-4.5c-0.6-1.5-1.5-2.8-2.7-3.9
					c-1.2-1.1-2.6-2.1-4.3-2.8s-3.5-1.1-5.6-1.1c-2,0-3.8,0.3-5.5,1s-3.1,1.6-4.3,2.7c-1.2,1.1-2.1,2.4-2.8,3.9s-1,3-1,4.6v0.9
					C121.9,49.5,122,49.5,122,49.5z"/>
				<path id="svg_13" class="st5" d="M182.8,20.6v56.7h-8.3V20.6h-21.4V13h51.1l-2.4,7.6H182.8z"/>
				<path id="svg_14" class="st5" d="M236.3,71.7c-2.2,2.3-4.6,4-7.3,5c-2.7,1.1-5.6,1.6-8.8,1.6c-3,0-5.9-0.6-8.7-1.7
					s-5.2-2.8-7.4-5c-2.3-2.3-3.9-5.1-4.6-8.1c-0.7-3.1-1.1-6.3-1.1-9.6v-1.8c0.1-3.2,0.5-6.1,1.2-8.6c0.7-2.5,2.3-5.1,4.7-7.6
					c2.2-2.2,4.6-3.9,7.2-4.9c2.6-1,5.5-1.6,8.6-1.6s5.9,0.5,8.6,1.5c2.6,1,5,2.6,7.2,4.8c2.2,2.3,3.8,4.7,4.8,7.4
					c1,2.6,1.5,5.6,1.5,8.8v1.9c0,3.3-0.4,6.5-1.1,9.4C240.3,66.3,238.7,69.1,236.3,71.7L236.3,71.7z M234.8,53.9v-1.8
					c0-4.5-1.2-8.2-3.5-11c-1.2-1.5-2.8-2.6-4.6-3.5s-4-1.2-6.4-1.2c-2.3,0-4.4,0.4-6.2,1.2s-3.3,1.9-4.5,3.3
					c-2.5,2.8-3.7,6.6-3.7,11.4v2.1c0,2.6,0.3,5,0.8,7.2c0.6,2.2,1.5,4.1,2.9,5.7c1.1,1.4,2.5,2.4,4.3,3.1s3.9,1.1,6.4,1.1
					c2.3,0,4.3-0.3,6-1s3.1-1.6,4.3-2.9c1.6-1.6,2.7-3.6,3.3-6S234.8,56.7,234.8,53.9L234.8,53.9z"/>
				<path id="svg_15" class="st5" d="M288.8,71.7c-2.2,2.3-4.6,4-7.3,5c-2.7,1.1-5.6,1.6-8.8,1.6c-3,0-5.9-0.6-8.7-1.7
					s-5.2-2.8-7.4-5c-2.3-2.3-3.9-5.1-4.6-8.1c-0.7-3.1-1.1-6.3-1.1-9.6v-1.8c0.1-3.2,0.5-6.1,1.2-8.6c0.7-2.5,2.3-5.1,4.7-7.6
					c2.2-2.2,4.6-3.9,7.2-4.9s5.5-1.6,8.6-1.6s5.9,0.5,8.6,1.5c2.6,1,5,2.6,7.2,4.8c2.2,2.3,3.8,4.7,4.8,7.4c1,2.6,1.5,5.6,1.5,8.8
					v1.9c0,3.3-0.4,6.5-1.1,9.4C292.8,66.3,291.2,69.1,288.8,71.7L288.8,71.7z M287.3,53.9v-1.8c0-4.5-1.2-8.2-3.5-11
					c-1.2-1.5-2.8-2.6-4.6-3.5s-4-1.2-6.4-1.2c-2.3,0-4.4,0.4-6.2,1.2c-1.8,0.8-3.3,1.9-4.5,3.3c-2.5,2.8-3.7,6.6-3.7,11.4v2.1
					c0,2.6,0.3,5,0.8,7.2c0.6,2.2,1.5,4.1,2.9,5.7c1.1,1.4,2.5,2.4,4.3,3.1s3.9,1.1,6.4,1.1c2.3,0,4.3-0.3,6-1s3.1-1.6,4.3-2.9
					c1.6-1.6,2.7-3.6,3.3-6C287,59.2,287.3,56.7,287.3,53.9L287.3,53.9z"/>
				<path id="svg_16" class="st5" d="M304,14.1l7.9-2.2V66c0,3.7,1.9,5.5,5.7,5.5h4.7v5.7c-1,0.4-2.2,0.6-3.4,0.8
					c-1.2,0.2-2.2,0.3-3.1,0.3c-1.7,0-3.2-0.3-4.7-1c-1.4-0.6-2.7-1.5-3.8-2.6c-1.1-1.1-1.9-2.4-2.5-3.9s-0.9-3.2-0.9-4.9L304,14.1
					L304,14.1L304,14.1z"/>
				<path id="svg_17" class="st5" d="M345.8,29.5c3,0,5.8,0.6,8.6,1.8c2.8,1.2,5.1,2.8,7.1,5l-4.8,4.7c-1-1.1-2.4-2.2-4.2-3.1
					c-1.7-1-4-1.5-6.9-1.5c-1,0-2,0.1-3.2,0.2c-1.1,0.2-2.2,0.5-3.2,0.9c-1,0.5-1.9,1.1-2.5,2c-0.7,0.9-1,2-1,3.3
					c0,1.5,0.7,2.7,2.1,3.6s3.1,1.6,5.2,2.2c2.1,0.6,4.3,1.3,6.7,1.8c2.4,0.6,4.7,1.4,6.7,2.3c2.1,1,3.8,2.2,5.2,3.8
					c1.4,1.6,2.1,3.7,2.1,6.2c0,4.8-1.6,8.6-4.7,11.4s-7.8,4.2-13.9,4.2c-4.6,0-8.5-0.8-11.6-2.4s-5.7-4.1-7.6-7.4l5.7-3.6
					c0.8,0.9,1.6,1.8,2.5,2.6c0.9,0.8,1.8,1.5,2.9,2.1c1,0.6,2.3,1,3.7,1.4c1.4,0.3,3,0.5,4.9,0.5c1,0,2.1-0.1,3.3-0.3
					c1.2-0.2,2.3-0.6,3.3-1.1c1-0.6,1.9-1.3,2.5-2.3c0.7-1,1-2.2,1-3.8c0-1.8-0.7-3.2-2.1-4.2c-1.4-0.9-3.1-1.7-5.2-2.3
					c-2.1-0.6-4.3-1.1-6.7-1.6c-2.4-0.5-4.6-1.2-6.7-2.2s-3.8-2.4-5.2-4.1c-1.4-1.8-2.1-4.2-2.1-7.3c0-2.4,0.6-4.4,1.8-6.1
					c1.2-1.6,2.6-3,4.4-4s3.7-1.7,5.8-2.2C341.9,29.8,343.9,29.5,345.8,29.5L345.8,29.5z"/>
			</g>
		</g>
	</g>
</g>
</svg>
