<?xml version="1.0" encoding="UTF-8"?>
<svg width="216px" height="60px" viewBox="0 0 216 60" version="1.1" xmlns="http://www.w3.org/2000/svg" xmlns:xlink="http://www.w3.org/1999/xlink">
    <!-- Generator: Sketch 42 (36781) - http://www.bohemiancoding.com/sketch -->
    <title>eTools-Logo color (white)</title>
    <desc>Created with Sketch.</desc>
    <defs></defs>
    <g id="!---UI-Style-Guide" stroke="none" stroke-width="1" fill="none" fill-rule="evenodd">
        <g id="01" transform="translate(-396.000000, -227.000000)">
            <g id="Group" transform="translate(80.000000, 175.000000)">
                <g id="eTools-Logo-color-(white)" transform="translate(316.000000, 52.000000)">
                    <g id="eTools-Logo-color">
                        <path d="M72.688382,29.2292668 L88.6612272,29.2292668 L88.6612272,28.7402343 C88.6612272,27.8354116 88.4775075,26.947491 88.1140372,26.0781625 C87.7494329,25.2082708 87.219821,24.4386644 86.5274697,23.7659631 C85.8345514,23.0966422 84.9959047,22.55465 84.0120968,22.1354793 C83.0265877,21.7202525 81.9140625,21.5101037 80.6750882,21.5101037 C79.5064263,21.5101037 78.4324597,21.711238 77.4475176,22.1089995 C76.4625756,22.5073243 75.6148563,23.0436825 74.9043598,23.7130034 C74.1927292,24.3823243 73.6455392,25.1519307 73.2633568,26.0218225 C72.8800403,26.8917143 72.688382,27.796537 72.688382,28.7402345 L72.688382,29.2292668 L72.688382,29.2292668 Z M72.688382,33.0333533 C72.688382,36.2222055 73.4272303,38.5422927 74.9043598,39.9891075 C76.3803553,41.4404296 78.6144782,42.1627103 81.6038936,42.1627103 C83.062311,42.1627103 84.3024194,41.8652343 85.3247858,41.2657752 C86.3443171,40.6708232 87.2572455,39.8448767 88.0596019,38.7946964 L92.2171119,40.4792667 C91.1590222,42.2539812 89.6818926,43.6489632 87.7862903,44.6630858 C85.8889869,45.6783352 83.7382183,46.1853965 81.3311491,46.1853965 C78.8877898,46.1853965 76.8181073,45.8518628 75.1226688,45.1791615 C73.4272303,44.5098406 72.0498991,43.5689602 70.9929435,42.3542667 C69.9342868,41.1395731 69.1687878,39.6747294 68.6958796,37.9529746 C68.2212702,36.230093 67.984249,34.3190353 67.984249,32.217548 L67.984249,31.6214692 C67.984249,30.7155197 68.0018271,29.8377403 68.0386845,28.9847505 C68.0749748,28.1334509 68.1838458,27.290039 68.3675655,26.457895 C68.5495842,25.6234975 68.8410408,24.797551 69.2430695,23.9839993 C69.6439641,23.1670672 70.2081653,22.3630933 70.9385079,21.567007 C72.1774822,20.1889272 73.6546118,19.1657901 75.3687625,18.4942156 C77.0817792,17.8248947 78.8514993,17.4879807 80.675088,17.4879807 C82.7164187,17.4879807 84.5315019,17.8158803 86.1180694,18.4677358 C87.7040699,19.1195912 89.0349041,20.0277944 90.1105719,21.1861477 C91.1856727,22.344501 91.9988028,23.7220176 92.5442916,25.317007 C93.0914817,26.9091795 93.3653601,28.6664286 93.3653601,30.5865007 L93.3653601,33.0333532 L72.688382,33.0333532 L72.688382,33.0333533 Z" id="Shape" fill="#FFFFFF"></path>
                        <polygon id="Shape" fill="#FFFFFF" points="107.81628 12.2162334 107.81628 45.5341045 102.892704 45.5341045 102.892704 12.2162334 90.202999 12.2162334 90.202999 7.76141827 120.450983 7.76141827 119.02999 12.2162334"></polygon>
                        <path d="M137.367944,31.8366887 L137.367944,30.752141 C137.367944,28.1058444 136.675025,25.9508339 135.290323,24.2826022 C134.55998,23.412147 133.648185,22.7338116 132.554939,22.2447792 C131.459425,21.7551833 130.202873,21.510667 128.780746,21.510667 C127.394909,21.510667 126.173513,21.7371545 125.114289,22.191256 C124.058468,22.6425406 123.165952,23.2887621 122.43561,24.1197792 C120.976058,25.7857573 120.245716,28.0151368 120.245716,30.8051007 L120.245716,32.0552885 C120.245716,33.5764724 120.41129,34.9894832 120.739037,36.2943209 C121.069052,37.5991587 121.632686,38.7214543 122.43561,39.6657151 C123.092238,40.4612379 123.93939,41.0775991 124.979335,41.5114183 C126.017011,41.947491 127.284904,42.1627103 128.780746,42.1627103 C130.166583,42.1627103 131.351688,41.964393 132.334929,41.5666315 C133.320438,41.1688701 134.158518,40.6054687 134.852571,39.8809344 C135.800655,38.940054 136.458417,37.7602914 136.821321,36.3484074 C137.184224,34.9353967 137.367944,33.4322416 137.367944,31.8366887 M138.243448,42.2720102 C136.966482,43.6140324 135.52621,44.6011118 133.922631,45.234375 C132.317918,45.8698918 130.58619,46.1853967 128.726311,46.1853967 C126.939012,46.1853967 125.224294,45.8608775 123.584425,45.2084586 C121.942288,44.5537861 120.483871,43.5779748 119.208039,42.2720102 C117.821069,40.8950571 116.919481,39.3028846 116.501008,37.488732 C116.079133,35.6790865 115.871598,33.7950721 115.871598,31.8366887 L115.871598,30.8051007 C115.907888,28.9205228 116.144909,27.2370793 116.581527,25.7508263 C117.020413,24.2651367 117.949219,22.7811373 119.370212,21.2948843 C120.647177,19.9889198 122.071573,19.0311373 123.638861,18.4136493 C125.207283,17.7978516 126.901588,17.4885442 128.72631,17.4885442 C130.549899,17.4885442 132.235131,17.7894006 133.786542,18.3849159 C135.335685,18.9838117 136.74874,19.9184947 138.024572,21.1867113 C139.337828,22.5247898 140.284778,23.9755485 140.868826,25.5316633 C141.451739,27.0917219 141.74433,28.8146034 141.74433,30.6952375 L141.74433,31.8366888 C141.74433,33.7950722 141.525454,35.643029 141.087702,37.3794322 C140.652218,39.1203426 139.701865,40.7496995 138.243448,42.2720102" id="Shape" fill="#FFFFFF"></path>
                        <path d="M168.715978,31.8366887 L168.715978,30.752141 C168.715978,28.1058444 168.024194,25.9508339 166.638357,24.2826022 C165.909148,23.412147 164.997354,22.7338116 163.902974,22.2447792 C162.809728,21.7551833 161.550907,21.510667 160.12878,21.510667 C158.741809,21.510667 157.522681,21.7371545 156.464592,22.191256 C155.406502,22.6425406 154.512853,23.2887621 153.78251,24.1197792 C152.325227,25.7857573 151.596018,28.0151368 151.596018,30.8051007 L151.596018,32.0552885 C151.596018,33.5764724 151.759325,34.9894832 152.088206,36.2943209 C152.415953,37.5991587 152.981855,38.7214543 153.78251,39.6657151 C154.440272,40.4612379 155.288558,41.0775991 156.326235,41.5114183 C157.366179,41.947491 158.631804,42.1627103 160.12878,42.1627103 C161.513483,42.1627103 162.700857,41.964393 163.684098,41.5666315 C164.667339,41.1688701 165.508821,40.6054687 166.199471,39.8809344 C167.148689,38.940054 167.805317,37.7602914 168.169355,36.3484074 C168.533392,34.9353967 168.715978,33.4322416 168.715978,31.8366887 M169.591482,42.2720102 C168.314516,43.6140324 166.875378,44.6011118 165.270665,45.234375 C163.664819,45.8698918 161.935358,46.1853967 160.074345,46.1853967 C158.287046,46.1853967 156.572329,45.8608775 154.931326,45.2084586 C153.290323,44.5537861 151.833039,43.5779748 150.557208,42.2720102 C149.171371,40.8950571 148.268649,39.3028846 147.849042,37.488732 C147.429436,35.6790865 147.218498,33.7950721 147.218498,31.8366887 L147.218498,30.8051007 C147.254788,28.9205228 147.492944,27.2370793 147.930696,25.7508263 C148.368448,24.2651367 149.298387,22.7811373 150.720514,21.2948843 C151.99748,19.9889198 153.418473,19.0311373 154.986895,18.4136493 C156.554183,17.7978516 158.248488,17.4885442 160.074345,17.4885442 C161.896799,17.4885442 163.583165,17.7894006 165.134577,18.3849159 C166.68372,18.9838117 168.09564,19.9184947 169.37374,21.1867113 C170.686996,22.5247898 171.632813,23.9755485 172.217994,25.5316633 C172.800907,27.0917219 173.093498,28.8146034 173.093498,30.6952375 L173.093498,31.8366888 C173.093498,33.7950722 172.873488,35.643029 172.435736,37.3794322 C171.999118,39.1203426 171.049899,40.7496995 169.591482,42.2720102" id="Shape" fill="#FFFFFF"></path>
                        <path d="M180.170111,8.41271031 L184.875378,7.10843596 L184.875378,38.9039963 C184.875378,41.0775991 186.00378,42.1627103 188.265121,42.1627103 L191.056074,42.1627103 L191.056074,45.5329777 C190.434602,45.7504507 189.771169,45.913837 189.058972,46.0220101 C188.349042,46.13131 187.736643,46.1853966 187.227445,46.1853966 C186.241935,46.1853966 185.321068,45.9960937 184.46371,45.6152343 C183.606351,45.234375 182.857863,44.719426 182.222782,44.0670072 C181.582031,43.4134615 181.081905,42.6438552 180.716734,41.7570613 C180.351563,40.8680138 180.170111,39.901217 180.170111,38.848783 L180.170111,8.41271031 L180.170111,8.41271031 Z" id="Shape" fill="#FFFFFF"></path>
                        <path d="M205.013105,17.4885442 C206.764113,17.4885442 208.460685,17.8333458 210.102823,18.5235127 C211.742692,19.2097357 213.146673,20.1894908 214.3125,21.4577075 L211.468246,24.2290792 C210.847908,23.5772237 210.027974,22.9608625 209.007308,22.380559 C207.985509,21.8025091 206.616683,21.5106673 204.906502,21.5106673 C204.320186,21.5106673 203.69191,21.557993 203.019405,21.6458836 C202.34123,21.7371547 201.705015,21.9202602 201.102823,22.1912562 C200.501764,22.4628157 200.000504,22.8515626 199.599042,23.3591873 C199.197581,23.866812 198.99685,24.5175406 198.99685,25.3170073 C198.99685,26.22183 199.40625,26.9176307 200.227318,27.4083534 C201.048387,27.8973858 202.076991,28.3334586 203.3188,28.7143179 C204.558342,29.0940505 205.888609,29.4574445 207.31187,29.7988657 C208.732863,30.1436673 210.065398,30.5983323 211.302671,31.1583534 C212.544481,31.7217548 213.573085,32.4620643 214.396421,33.3871695 C215.215222,34.3111478 215.62689,35.5348558 215.62689,37.0560397 C215.62689,39.8809345 214.695817,42.1086238 212.835937,43.7402345 C210.977193,45.371845 208.240675,46.1853967 204.629788,46.1853967 C201.896673,46.1853967 199.599042,45.7234075 197.738029,44.7994291 C195.879284,43.8754508 194.383443,42.4196214 193.25504,40.4251803 L196.645917,38.3067909 C197.117692,38.8476563 197.609879,39.3558444 198.121346,39.826848 C198.632813,40.2989784 199.197581,40.706881 199.816784,41.0516827 C200.435988,41.3964843 201.157258,41.666917 201.979461,41.8652343 C202.798261,42.0658052 203.774698,42.1627103 204.906502,42.1627103 C205.487147,42.1627103 206.135837,42.1086238 206.845766,42.0004507 C207.557964,41.8911508 208.213458,41.6759315 208.816784,41.3491587 C209.417843,41.0223858 209.917969,40.5716647 210.31943,39.9902343 C210.719758,39.4110577 210.921623,38.6684946 210.921623,37.7602914 C210.921623,36.6751802 210.511089,35.859375 209.691154,35.3162559 C208.870086,34.773137 207.84942,34.326923 206.62689,33.9821213 C205.405494,33.6418268 204.083165,33.3229416 202.662172,33.03448 C201.241179,32.7448918 199.916583,32.3076923 198.697455,31.7307692 C197.47379,31.1499023 196.453125,30.3448017 195.632056,29.3098333 C194.813256,28.2782452 194.402722,26.85622 194.402722,25.0426307 C194.402722,23.6301833 194.749748,22.44535 195.441532,21.4841872 C196.133316,20.5252779 196.999748,19.7444035 198.040826,19.1488882 C199.079637,18.5499924 200.220514,18.1218074 201.458921,17.8694035 C202.697329,17.6175631 203.882434,17.4885442 205.013105,17.4885442" id="Shape" fill="#FFFFFF"></path>
                        <polygon id="Shape" fill="#009A54" points="30.4345388 59.1098257 30.4305696 29.6749173 60.0587828 29.6749173"></polygon>
                        <polygon id="Shape" fill="#0061E9" points="30.4300025 0.236065154 30.4311365 29.6743539 0.804057445 29.6721003"></polygon>
                        <polygon id="Shape" fill="#0099FF" points="30.4345388 29.6715369 30.4305696 0.238882154 60.0565146 0.238882154"></polygon>
                        <polygon id="Shape" fill="#72C300" points="60.0548135 0.242262577 60.0536794 29.6777343 30.4317036 29.6743539"></polygon>
                    </g>
                </g>
            </g>
        </g>
    </g>
</svg>